<svg width="121" height="148" viewBox="0 0 121 148" fill="none" xmlns="http://www.w3.org/2000/svg">
<rect x="0.863037" y="29.4422" width="75.5662" height="128.005" transform="rotate(-22.9309 0.863037 29.4422)" fill="url(#paint0_linear)"/>
<rect x="1.00978" y="29.5017" width="75.3422" height="127.781" transform="rotate(-22.9309 1.00978 29.5017)" stroke="white" stroke-opacity="0.3" stroke-width="0.223928"/>
<path d="M48.6867 85.239L44.0706 74.3274L45.5607 73.697L50.6833 79.2798L50.7137 79.267L47.9328 72.6934L49.4838 72.0373L54.1 82.9489L52.6402 83.5665L47.4937 78.0118L47.4633 78.0247L50.2377 84.5829L48.6867 85.239Z" fill="white"/>
<path d="M55.2909 82.4449L54.6691 80.9751L55.2171 74.4734C55.2468 74.148 55.2285 73.8789 55.1646 73.6713C55.1007 73.4637 55.005 73.2093 54.8798 72.9133C54.8237 72.7806 54.7632 72.6377 54.6955 72.4919C54.6278 72.346 54.5413 72.2262 54.4431 72.1353C54.3449 72.0445 54.2279 71.9797 54.0941 71.946C53.9604 71.9123 53.7983 71.9388 53.6056 72.0203C53.3725 72.1189 53.213 72.2646 53.1323 72.4552C53.0516 72.6458 53.0627 72.8697 53.1706 73.1249L53.5463 74.013L51.9953 74.6691L51.6326 73.8117C51.4944 73.4851 51.4257 73.1531 51.4264 72.8158C51.4272 72.4786 51.4886 72.1577 51.6108 71.8533C51.7229 71.5532 51.8928 71.2768 52.1226 71.0291C52.3525 70.7814 52.6285 70.5864 52.9529 70.4492C53.3584 70.2776 53.7405 70.2062 54.0921 70.232C54.4436 70.2578 54.7732 70.359 55.0738 70.5327C55.3642 70.7107 55.6241 70.9437 55.8485 71.2339C56.0728 71.5241 56.2653 71.8518 56.4207 72.2193C56.533 72.4847 56.6229 72.7114 56.6884 72.8943C56.7538 73.0772 56.8069 73.2593 56.8456 73.4355C56.8843 73.6117 56.9027 73.7965 56.9008 73.9898C56.899 74.1831 56.8869 74.4229 56.8645 74.7091L56.4578 80.104L59.2557 78.9204L59.9163 80.4821L55.2887 82.4398L55.2909 82.4449Z" fill="#FFE600"/>
<path d="M62.1846 79.5288L58.1903 70.087L56.396 70.8461L55.7742 69.3762L60.9188 67.1998L61.5406 68.6697L59.7463 69.4287L63.7385 78.8654L62.1825 79.5237L62.1846 79.5288Z" fill="white"/>
<path d="M66.2138 77.8241L61.5977 66.9125L66.2253 64.9548L66.8471 66.4246L63.7755 67.7241L65.1293 70.9241L67.8055 69.7919L68.4295 71.2668L65.7533 72.399L67.107 75.599L70.1786 74.2996L70.8393 75.8613L66.2117 77.819L66.2138 77.8241Z" fill="white"/>
<path d="M71.7839 75.4675L67.1677 64.5559L68.6579 63.9255L73.7805 69.5084L73.8109 69.4955L71.03 62.922L72.581 62.2658L77.1971 73.1775L75.7374 73.795L70.5908 68.2403L70.5604 68.2532L73.3349 74.8114L71.7839 75.4675Z" fill="white"/>
<path d="M39.0664 71.426L53.4966 65.3213L52.715 63.4737L36.45 70.3547L41.3403 81.9145L43.1752 81.1383L39.0664 71.426Z" fill="#FFE600"/>
<path d="M82.1674 75.9847L67.9755 81.9887L68.7571 83.8362L84.7788 77.0582L79.9272 65.5902L78.0975 66.3643L82.1674 75.9847Z" fill="#FFE600"/>
<rect x="72.064" y="121.281" width="15.9826" height="1.06552" transform="rotate(-22.9309 72.064 121.281)" fill="#FAE80B"/>
<path d="M62.988 130.41L64.9605 135.073L65.6266 134.791L65.0489 133.426L65.1575 132.532L66.8322 134.281L67.5582 133.974L65.2754 131.696L65.4125 129.385L64.7131 129.68L64.6037 132.373L63.6541 130.129L62.988 130.41ZM69.1793 133.288L69.8454 133.006L68.8676 130.695C68.7718 130.469 68.606 130.17 68.2648 130.031C68.0307 129.942 67.7391 129.939 67.4394 130.066C67.133 130.196 66.905 130.418 66.8089 130.655C66.7205 130.873 66.7039 131.186 66.8373 131.483L67.4701 131.216C67.4401 131.126 67.4424 131.039 67.4665 130.966C67.5032 130.848 67.589 130.773 67.6822 130.733C67.7821 130.691 67.8961 130.682 67.9938 130.727C68.1103 130.78 68.1592 130.877 68.1987 130.97L68.3452 131.316C68.1303 131.384 68.0037 131.437 67.9571 131.457C67.7639 131.539 67.4022 131.723 67.2923 132.076C67.1949 132.384 67.3338 132.75 67.4352 132.989C67.5479 133.256 67.7081 133.541 67.9963 133.647C68.2276 133.73 68.4425 133.663 68.5757 133.606C68.7156 133.547 68.8242 133.47 68.9085 133.316C68.9708 133.204 69.0123 133.06 69.0279 132.967L69.0412 132.962L69.1793 133.288ZM68.7679 132.316C68.8919 132.609 68.7751 132.815 68.5752 132.9C68.462 132.948 68.3557 132.938 68.244 132.859C68.1541 132.795 68.1013 132.708 68.0619 132.614C68.0168 132.508 67.9709 132.362 68.0152 132.226C68.0683 132.054 68.2225 131.973 68.3291 131.928C68.4023 131.897 68.4851 131.87 68.5706 131.849L68.7679 132.316ZM68.6932 129.599L70.8769 132.57L71.443 132.33L70.986 130.136L71.0193 130.122L72.2756 131.978L72.8418 131.739L72.2301 128.102L71.564 128.384L72.0359 130.65L70.7448 128.731L70.1919 128.965L70.6837 131.222L69.3726 129.311L68.6932 129.599ZM72.2903 126.891L72.7158 127.897L72.3761 128.041L72.6015 128.573L72.9412 128.43L73.7331 130.301C73.8176 130.501 73.937 130.765 74.208 130.886C74.5103 131.025 74.8328 130.896 75.026 130.815L75.2058 130.739L74.9438 130.119L74.8572 130.156C74.7972 130.181 74.684 130.229 74.5854 130.2C74.4678 130.163 74.402 130.026 74.3738 129.96L73.6073 128.148L74.0336 127.968L73.8082 127.435L73.3819 127.615L72.9564 126.609L72.2903 126.891ZM77.0434 129.961L77.7095 129.679L76.7317 127.368C76.6359 127.142 76.4702 126.843 76.1289 126.704C75.8948 126.615 75.6033 126.613 75.3035 126.739C74.9971 126.869 74.7691 127.091 74.673 127.328C74.5847 127.546 74.568 127.859 74.7015 128.156L75.3342 127.889C75.3043 127.799 75.3066 127.712 75.3307 127.639C75.3673 127.521 75.4531 127.446 75.5464 127.406C75.6463 127.364 75.7603 127.355 75.8579 127.4C75.9744 127.453 76.0234 127.55 76.0628 127.643L76.2093 127.99C75.9944 128.057 75.8679 128.11 75.8212 128.13C75.6281 128.212 75.2663 128.396 75.1564 128.749C75.0591 129.057 75.1979 129.423 75.2994 129.662C75.4121 129.929 75.5722 130.214 75.8604 130.32C76.0917 130.403 76.3066 130.336 76.4399 130.279C76.5797 130.22 76.6884 130.143 76.7726 129.989C76.8349 129.877 76.8764 129.733 76.892 129.64L76.9054 129.635L77.0434 129.961ZM76.632 128.989C76.756 129.282 76.6392 129.488 76.4394 129.573C76.3261 129.621 76.2198 129.611 76.1081 129.532C76.0182 129.468 75.9654 129.381 75.926 129.287C75.8809 129.181 75.835 129.035 75.8794 128.899C75.9324 128.727 76.0866 128.646 76.1932 128.601C76.2665 128.57 76.3492 128.543 76.4348 128.522L76.632 128.989ZM77.033 126.07L78.4307 129.374L79.0968 129.092L78.2965 127.201C77.9894 126.475 78.5217 126.155 78.864 126.073L78.5625 125.361C78.3293 125.459 77.994 125.688 77.8646 126.143L77.8485 126.142L77.6991 125.789L77.033 126.07ZM80.0302 123.201L82.0027 127.863L84.0808 126.984L83.8131 126.351L82.4011 126.949L80.6963 122.919L80.0302 123.201ZM85.9873 126.177L86.6534 125.896L85.6756 123.584C85.5798 123.358 85.4141 123.059 85.0728 122.921C84.8387 122.831 84.5471 122.829 84.2474 122.956C83.941 123.085 83.713 123.307 83.6169 123.544C83.5286 123.762 83.5119 124.076 83.6454 124.373L84.2781 124.105C84.2482 124.015 84.2505 123.928 84.2746 123.855C84.3112 123.737 84.397 123.662 84.4903 123.622C84.5902 123.58 84.7042 123.571 84.8018 123.616C84.9183 123.669 84.9673 123.766 85.0067 123.859L85.1532 124.206C84.9383 124.273 84.8118 124.327 84.7651 124.346C84.572 124.428 84.2102 124.613 84.1003 124.965C84.003 125.274 84.1418 125.639 84.2433 125.879C84.356 126.145 84.5161 126.431 84.8043 126.537C85.0356 126.619 85.2505 126.552 85.3838 126.496C85.5236 126.436 85.6323 126.359 85.7165 126.206C85.7788 126.093 85.8203 125.95 85.8359 125.857L85.8493 125.851L85.9873 126.177ZM85.5759 125.205C85.6999 125.498 85.5831 125.704 85.3833 125.789C85.27 125.837 85.1637 125.827 85.052 125.749C84.9621 125.684 84.9093 125.597 84.8699 125.504C84.8248 125.397 84.7789 125.252 84.8233 125.115C84.8763 124.943 85.0305 124.862 85.1371 124.817C85.2104 124.786 85.2931 124.759 85.3787 124.739L85.5759 125.205ZM87.3746 125.59L88.0407 125.309L87.649 124.383L87.7574 123.748L88.9599 124.92L89.6792 124.616L87.8983 123.06L88.1217 121.379L87.4556 121.661L87.265 123.438L87.2517 123.444L86.0682 120.646L85.4021 120.928L87.3746 125.59ZM90.087 124.443L90.7531 124.161L89.795 121.897C89.75 121.79 89.7059 121.667 89.7607 121.518C89.7876 121.452 89.8422 121.358 89.9687 121.305C90.0687 121.262 90.156 121.265 90.2441 121.306C90.3607 121.359 90.4096 121.456 90.4434 121.536L91.4325 123.874L92.0986 123.592L90.9968 120.988C90.9292 120.828 90.8162 120.616 90.5669 120.51C90.3746 120.426 90.1855 120.443 89.9923 120.525C89.7992 120.607 89.6952 120.714 89.6063 120.838C89.5422 120.928 89.4971 121.025 89.4682 121.124L88.7806 119.499L88.1145 119.78L90.087 124.443ZM91.4213 119.983L92.819 123.287L93.4851 123.005L92.527 120.741C92.4819 120.634 92.4378 120.511 92.4927 120.363C92.536 120.242 92.6141 120.186 92.694 120.152C92.7939 120.11 92.8746 120.115 92.9628 120.156C93.0821 120.215 93.1254 120.299 93.1621 120.386L94.1511 122.724L94.8172 122.442L93.8591 120.177C93.8141 120.071 93.77 119.948 93.8248 119.799C93.8604 119.698 93.9263 119.631 94.0262 119.588C94.1128 119.552 94.1973 119.547 94.2949 119.592C94.4048 119.648 94.4576 119.736 94.4942 119.822L95.4833 122.16L96.1494 121.878L95.0842 119.361C95.011 119.187 94.9075 118.98 94.6953 118.85C94.4302 118.687 94.1896 118.75 93.9832 118.837C93.8433 118.896 93.7413 118.971 93.6563 119.085C93.5646 119.202 93.5125 119.358 93.49 119.509C93.3983 119.422 93.2828 119.353 93.129 119.324C92.9848 119.298 92.8508 119.316 92.7243 119.369C92.5311 119.451 92.4099 119.573 92.3333 119.708C92.2893 119.789 92.2403 119.896 92.2142 120.001L92.0874 119.702L91.4213 119.983ZM98.1836 121.018L98.8496 120.736L97.8718 118.425C97.776 118.198 97.6103 117.899 97.2691 117.761C97.0349 117.671 96.7434 117.669 96.4436 117.796C96.1372 117.926 95.9092 118.148 95.8132 118.385C95.7248 118.603 95.7081 118.916 95.8416 119.213L96.4744 118.945C96.4444 118.856 96.4467 118.768 96.4708 118.695C96.5074 118.578 96.5932 118.502 96.6865 118.463C96.7864 118.421 96.9004 118.412 96.998 118.457C97.1146 118.509 97.1635 118.607 97.2029 118.7L97.3495 119.046C97.1345 119.114 97.008 119.167 96.9614 119.187C96.7682 119.268 96.4065 119.453 96.2966 119.806C96.1992 120.114 96.338 120.479 96.4395 120.719C96.5522 120.985 96.7123 121.271 97.0005 121.377C97.2318 121.46 97.4468 121.392 97.58 121.336C97.7199 121.277 97.8285 121.199 97.9128 121.046C97.975 120.933 98.0165 120.79 98.0322 120.697L98.0455 120.691L98.1836 121.018ZM97.7722 120.045C97.8961 120.338 97.7793 120.545 97.5795 120.629C97.4663 120.677 97.3599 120.667 97.2483 120.589C97.1583 120.525 97.1056 120.437 97.0661 120.344C97.021 120.237 96.9752 120.092 97.0195 119.955C97.0725 119.784 97.2267 119.703 97.3333 119.658C97.4066 119.627 97.4893 119.599 97.5749 119.579L97.7722 120.045ZM100.429 117.225C100.319 116.965 100.116 116.745 99.8886 116.653C99.7246 116.581 99.4228 116.536 99.0032 116.713C98.6435 116.865 98.4801 117.091 98.4032 117.281C98.3253 117.487 98.323 117.778 98.4611 118.105C98.5315 118.271 98.6578 118.477 98.8776 118.588C98.9373 118.618 99.1108 118.694 99.4089 118.693L99.8724 118.693C100.203 118.695 100.31 118.799 100.383 118.972C100.42 119.059 100.449 119.164 100.409 119.275C100.376 119.383 100.29 119.459 100.197 119.498C100.104 119.538 99.9671 119.549 99.879 119.507C99.7909 119.466 99.722 119.377 99.6854 119.291L99.0193 119.573C99.1207 119.812 99.3134 120.045 99.556 120.154C99.7512 120.245 100.053 120.29 100.453 120.121C100.872 119.943 101.051 119.679 101.118 119.447C101.205 119.151 101.125 118.87 101.057 118.71C100.936 118.424 100.779 118.255 100.635 118.175C100.491 118.094 100.268 118.031 100.073 118.035L99.6029 118.038C99.5022 118.041 99.3759 118.04 99.2699 117.975C99.1856 117.924 99.1384 117.85 99.1131 117.79C99.0173 117.563 99.132 117.389 99.2986 117.318C99.3918 117.279 99.4897 117.269 99.575 117.304C99.6508 117.334 99.7274 117.404 99.7763 117.501L100.429 117.225Z" fill="white"/>
<defs>
<linearGradient id="paint0_linear" x1="-32.6101" y1="-41.0455" x2="61.5173" y2="102.548" gradientUnits="userSpaceOnUse">
<stop offset="0.00680678" stop-color="#5C5C5C"/>
<stop offset="1"/>
</linearGradient>
</defs>
</svg>
