<svg width="128" height="187" viewBox="0 0 128 187" fill="none" xmlns="http://www.w3.org/2000/svg">
<rect x="26.9004" y="0.00210571" width="102.22" height="173.156" transform="rotate(8.74134 26.9004 0.00210571)" fill="url(#paint0_linear)"/>
<rect x="26.9945" y="0.130471" width="101.995" height="172.931" transform="rotate(8.74134 26.9945 0.130471)" stroke="white" stroke-opacity="0.29" stroke-width="0.225131"/>
<path d="M42.3275 98.2059L44.7632 82.3651L46.9265 82.6977L48.8587 92.7634L48.9028 92.7702L50.3701 83.2272L52.6218 83.5734L50.1861 99.4142L48.0669 99.0884L46.0872 89.0381L46.043 89.0313L44.5791 98.5521L42.3275 98.2059Z" fill="white"/>
<path d="M49.0141 92.7873L50.4643 83.3556L52.4934 83.6676L50.0919 99.2858L48.1621 98.9891L46.1976 89.0163L46.1824 88.9388L46.1043 88.9268L46.0601 88.92L45.9489 88.9029L45.9318 89.0142L44.485 98.4237L42.4559 98.1117L44.8573 82.4934L46.8309 82.7969L48.7481 92.7846L48.7631 92.8626L48.8416 92.8747L48.8857 92.8815L48.997 92.8986L49.0141 92.7873Z" stroke="white" stroke-opacity="0.19" stroke-width="0.225131"/>
<path d="M51.9151 99.68L52.2432 97.5462L57.492 90.4504C57.7573 90.0968 57.9274 89.774 58.0013 89.4896C58.0752 89.2052 58.1457 88.8444 58.2118 88.4147C58.2414 88.222 58.2733 88.0146 58.299 87.7986C58.3246 87.5826 58.3101 87.3832 58.2616 87.2088C58.2131 87.0345 58.1243 86.8768 57.9943 86.743C57.8642 86.6092 57.6588 86.5246 57.3792 86.4816C57.0407 86.4295 56.7536 86.484 56.5253 86.6461C56.297 86.8082 56.1507 87.0739 56.0938 87.4443L55.8956 88.7335L53.6439 88.3873L53.8353 87.1426C53.9082 86.6684 54.0649 86.2374 54.3053 85.8497C54.5457 85.4619 54.8443 85.1362 55.2012 84.8725C55.5434 84.6066 55.9353 84.409 56.3759 84.2871C56.8164 84.1652 57.2727 84.1368 57.7436 84.2092C58.3323 84.2997 58.8229 84.4889 59.2093 84.7683C59.5957 85.0477 59.9033 85.3983 60.126 85.8118C60.3339 86.223 60.4676 86.6758 60.5198 87.1693C60.572 87.6627 60.5607 88.1767 60.4787 88.7101C60.4195 89.0954 60.362 89.4203 60.3074 89.6773C60.2528 89.9344 60.1846 90.1818 60.104 90.4121C60.0234 90.6424 59.9134 90.8682 59.7739 91.0894C59.6345 91.3107 59.4502 91.5782 59.2212 91.8918L54.9212 97.8138L58.9829 98.4384L58.6343 100.706L51.9162 99.6726L51.9151 99.68Z" fill="#FFE600"/>
<path d="M55.9825 87.4272L55.8014 88.6052L53.7723 88.2932L53.9466 87.1597C54.0173 86.6997 54.169 86.2832 54.401 85.909C54.634 85.533 54.923 85.218 55.2681 84.9631L55.2681 84.9631L55.2703 84.9614C55.6006 84.7047 55.9792 84.5136 56.4059 84.3956C56.831 84.278 57.2713 84.2505 57.7265 84.3205C58.3014 84.4089 58.7743 84.5927 59.1433 84.8595C59.5157 85.1287 59.8117 85.4661 60.0262 85.8639C60.2273 86.2621 60.3571 86.7013 60.4079 87.1811C60.459 87.6646 60.448 88.1689 60.3675 88.693C60.3084 89.0771 60.2513 89.3997 60.1973 89.654C60.1436 89.9068 60.0767 90.1496 59.9978 90.3749C59.9202 90.5967 59.814 90.8148 59.6787 91.0294C59.5411 91.2477 59.3584 91.513 59.1303 91.8254L59.1301 91.8257L54.8301 97.7477L54.7216 97.8971L54.9041 97.9251L58.8545 98.5325L58.5401 100.577L52.0446 99.5785L52.3502 97.5908L57.5821 90.5179C57.5821 90.5178 57.5822 90.5177 57.5823 90.5176C57.8524 90.1575 58.0314 89.8215 58.1102 89.5179C58.1854 89.2285 58.2566 88.8636 58.323 88.4318L58.3231 88.431C58.3527 88.2388 58.3848 88.0298 58.4107 87.8119C58.438 87.583 58.4229 87.3687 58.37 87.1787C58.3166 86.9866 58.2185 86.8121 58.075 86.6645C57.9203 86.5055 57.6867 86.415 57.3963 86.3703C57.0361 86.3149 56.7177 86.3715 56.4602 86.5543C56.2002 86.7389 56.0426 87.0362 55.9825 87.4272Z" stroke="white" stroke-opacity="0.19" stroke-width="0.225131"/>
<path d="M61.9221 101.219L64.0296 87.5118L61.4248 87.1113L61.7529 84.9775L69.2215 86.1259L68.8934 88.2597L66.2886 87.8592L64.1822 101.559L61.9232 101.211L61.9221 101.219Z" fill="white"/>
<path d="M64.1409 87.529L64.158 87.4177L64.0467 87.4006L61.5532 87.0172L61.8471 85.1059L69.0932 86.22L68.7993 88.1313L66.3057 87.7479L66.1945 87.7308L66.1774 87.8421L64.088 101.43L62.0516 101.117L64.1409 87.529Z" stroke="white" stroke-opacity="0.19" stroke-width="0.225131"/>
<path d="M67.7718 102.118L70.2075 86.2775L76.9256 87.3104L76.5975 89.4443L72.1384 88.7586L71.4241 93.4042L75.3092 94.0016L74.98 96.1428L71.0949 95.5454L70.3806 100.191L74.8396 100.877L74.491 103.144L67.773 102.111L67.7718 102.118Z" fill="white"/>
<path d="M70.3634 100.302L74.7113 100.971L74.3969 103.015L67.9013 102.017L70.3017 86.4058L76.7972 87.4046L76.5033 89.3159L72.1555 88.6474L72.0442 88.6303L72.0271 88.7415L71.3128 93.3871L71.2957 93.4983L71.407 93.5155L75.1809 94.0957L74.8858 96.0145L71.112 95.4342L71.0007 95.4171L70.9836 95.5283L70.2693 100.174L70.2522 100.285L70.3634 100.302Z" stroke="white" stroke-opacity="0.19" stroke-width="0.225131"/>
<path d="M75.8585 103.362L78.2942 87.5209L80.4575 87.8535L82.3897 97.9192L82.4338 97.926L83.9012 88.383L86.1528 88.7292L83.7171 104.57L81.5979 104.244L79.6182 94.1939L79.574 94.1871L78.1101 103.708L75.8585 103.362Z" fill="white"/>
<path d="M82.5451 97.9431L83.9953 88.5114L86.0244 88.8234L83.6229 104.442L81.6931 104.145L79.7286 94.1721L79.7134 94.0946L79.6353 94.0826L79.5911 94.0758L79.4799 94.0587L79.4628 94.17L78.016 103.58L75.9869 103.268L78.3883 87.6492L80.3619 87.9527L82.2791 97.9404L82.2941 98.0184L82.3726 98.0305L82.4167 98.0373L82.528 98.0544L82.5451 97.9431Z" stroke="white" stroke-opacity="0.19" stroke-width="0.225131"/>
<path d="M41.063 75.4707L62.0119 78.6918L62.4243 76.0097L38.8118 72.3791L36.2314 89.1608L38.8951 89.5704L41.063 75.4707Z" fill="#FFE600"/>
<path d="M41.0801 75.3595L40.9689 75.3424L40.9518 75.4536L38.8009 89.442L36.3598 89.0667L38.9059 72.5074L62.2959 76.1039L61.9177 78.5635L41.0801 75.3595Z" stroke="white" stroke-opacity="0.19" stroke-width="0.225131"/>
<path d="M87.4453 111.332L66.8423 108.164L66.4299 110.846L89.6892 114.423L92.2491 97.7742L89.5927 97.3657L87.4453 111.332Z" fill="#FFE600"/>
<path d="M87.4282 111.443L87.5394 111.46L87.5566 111.349L89.6869 97.4941L92.1207 97.8683L89.5951 114.294L66.5583 110.752L66.9364 108.292L87.4282 111.443Z" stroke="white" stroke-opacity="0.19" stroke-width="0.225131"/>
<rect x="43.6416" y="156.304" width="21.6201" height="1.44136" transform="rotate(8.74134 43.6416 156.304)" fill="#FAE80B"/>
<rect x="43.7358" y="156.432" width="21.395" height="1.21623" transform="rotate(8.74134 43.7358 156.432)" stroke="white" stroke-opacity="0.19" stroke-width="0.225131"/>
<path d="M26.7798 159.904L25.739 166.673L26.706 166.821L27.0108 164.839L27.7709 163.887L28.4562 167.09L29.5102 167.253L28.4997 163.009L30.2996 160.445L29.2842 160.289L27.2457 163.311L27.7468 160.053L26.7798 159.904ZM31.8636 167.614L32.8306 167.763L33.3465 164.408C33.3971 164.079 33.4186 163.617 33.124 163.215C32.918 162.946 32.584 162.736 32.1488 162.67C31.704 162.601 31.2838 162.695 31.0049 162.899C30.7483 163.088 30.5066 163.437 30.4493 163.873L31.368 164.014C31.397 163.89 31.4617 163.791 31.5412 163.724C31.6669 163.615 31.8194 163.589 31.9548 163.61C32.0998 163.632 32.2374 163.703 32.3178 163.824C32.4145 163.967 32.4019 164.114 32.381 164.249L32.3037 164.752C32.0084 164.677 31.8247 164.649 31.757 164.638C31.4766 164.595 30.9291 164.551 30.5521 164.879C30.2211 165.164 30.1215 165.684 30.0679 166.032C30.0085 166.418 29.9899 166.861 30.2466 167.188C30.4541 167.447 30.7494 167.522 30.9428 167.552C31.1459 167.583 31.3259 167.571 31.5319 167.455C31.6836 167.369 31.8331 167.234 31.9171 167.138L31.9365 167.141L31.8636 167.614ZM32.0807 166.203C32.0153 166.628 31.7341 166.783 31.4441 166.738C31.2797 166.713 31.1644 166.626 31.0915 166.456C31.0334 166.319 31.0349 166.18 31.0557 166.045C31.0795 165.89 31.1301 165.69 31.2781 165.564C31.461 165.405 31.6961 165.421 31.8508 165.445C31.9572 165.461 32.0717 165.489 32.1848 165.526L32.0807 166.203ZM33.9245 163.022L34.328 167.993L35.15 168.12L36.1821 165.269L36.2305 165.277L36.3587 168.306L37.1806 168.432L39.0591 163.811L38.0921 163.663L37.0257 166.607L36.9027 163.48L36.1002 163.356L35.0628 166.305L34.9108 163.173L33.9245 163.022ZM39.9887 162.46L39.7642 163.92L39.2711 163.844L39.1521 164.617L39.6453 164.693L39.2275 167.41C39.1829 167.7 39.1331 168.089 39.3592 168.42C39.6084 168.795 40.0711 168.876 40.3515 168.919L40.6126 168.96L40.7509 168.06L40.6251 168.041C40.5381 168.028 40.3737 168.002 40.2807 167.899C40.1714 167.773 40.193 167.569 40.2078 167.472L40.6122 164.842L41.2311 164.937L41.35 164.163L40.7312 164.068L40.9557 162.608L39.9887 162.46ZM43.2803 169.37L44.2472 169.518L44.7632 166.163C44.8137 165.834 44.8352 165.372 44.5407 164.971C44.3346 164.702 44.0006 164.492 43.5655 164.425C43.1207 164.357 42.7004 164.45 42.4215 164.655C42.1649 164.843 41.9232 165.192 41.866 165.629L42.7846 165.77C42.8136 165.646 42.8783 165.547 42.9579 165.48C43.0836 165.37 43.2361 165.344 43.3714 165.365C43.5165 165.387 43.6541 165.458 43.7344 165.579C43.8311 165.723 43.8185 165.869 43.7977 166.005L43.7204 166.508C43.4251 166.432 43.2413 166.404 43.1737 166.394C42.8932 166.351 42.3458 166.306 41.9687 166.634C41.6377 166.92 41.5381 167.439 41.4846 167.787C41.4251 168.174 41.4065 168.616 41.6632 168.943C41.8707 169.203 42.166 169.278 42.3594 169.307C42.5625 169.339 42.7425 169.327 42.9485 169.21C43.1003 169.124 43.2497 168.989 43.3338 168.893L43.3531 168.896L43.2803 169.37ZM43.4973 167.958C43.4319 168.384 43.1508 168.538 42.8607 168.494C42.6963 168.468 42.581 168.381 42.5081 168.212C42.4501 168.074 42.4515 167.936 42.4724 167.8C42.4962 167.646 42.5467 167.446 42.6947 167.32C42.8777 167.16 43.1127 167.176 43.2674 167.2C43.3738 167.216 43.4884 167.244 43.6014 167.281L43.4973 167.958ZM46.0317 164.883L45.2942 169.679L46.2612 169.828L46.6834 167.082C46.8455 166.028 47.6853 166.038 48.1375 166.187L48.2966 165.152C47.9582 165.1 47.41 165.125 46.9377 165.557L46.9198 165.544L46.9986 165.032L46.0317 164.883ZM51.5206 163.708L50.4798 170.477L53.4967 170.941L53.638 170.022L51.588 169.707L52.4875 163.857L51.5206 163.708ZM56.2645 171.366L57.2314 171.515L57.7474 168.16C57.7979 167.831 57.8194 167.369 57.5249 166.967C57.3188 166.698 56.9848 166.488 56.5497 166.421C56.1049 166.353 55.6846 166.447 55.4057 166.651C55.1491 166.84 54.9074 167.188 54.8502 167.625L55.7688 167.766C55.7978 167.642 55.8625 167.543 55.9421 167.476C56.0678 167.367 56.2202 167.341 56.3556 167.362C56.5007 167.384 56.6383 167.455 56.7186 167.576C56.8153 167.719 56.8027 167.866 56.7819 168.001L56.7046 168.504C56.4093 168.429 56.2255 168.401 56.1578 168.39C55.8774 168.347 55.33 168.303 54.9529 168.631C54.6219 168.916 54.5223 169.435 54.4688 169.784C54.4093 170.17 54.3907 170.613 54.6474 170.939C54.8549 171.199 55.1502 171.274 55.3436 171.304C55.5467 171.335 55.7267 171.323 55.9327 171.206C56.0844 171.121 56.2339 170.985 56.318 170.889L56.3373 170.892L56.2645 171.366ZM56.4815 169.954C56.4161 170.38 56.135 170.535 55.8449 170.49C55.6805 170.465 55.5652 170.378 55.4923 170.208C55.4343 170.071 55.4357 169.932 55.4565 169.797C55.4803 169.642 55.5309 169.442 55.6789 169.316C55.8619 169.156 56.0969 169.173 56.2516 169.197C56.358 169.213 56.4725 169.24 56.5856 169.278L56.4815 169.954ZM58.2784 171.676L59.2454 171.825L59.452 170.481L60.0277 169.827L60.5798 172.03L61.6241 172.19L60.6785 169.135L62.1295 167.359L61.1625 167.21L59.681 169.12L59.6617 169.117L60.2861 165.056L59.3192 164.907L58.2784 171.676ZM62.2161 172.281L63.1831 172.43L63.6886 169.142C63.7124 168.988 63.7489 168.815 63.9177 168.683C63.9958 168.625 64.1252 168.556 64.3089 168.584C64.454 168.607 64.5529 168.671 64.6251 168.782C64.7218 168.925 64.7091 169.072 64.6913 169.188L64.1694 172.582L65.1364 172.73L65.7177 168.95C65.7534 168.717 65.7735 168.394 65.5622 168.094C65.4 167.861 65.1702 167.747 64.8898 167.704C64.6093 167.661 64.4137 167.71 64.2233 167.789C64.0857 167.847 63.9645 167.928 63.8611 168.021L64.2239 165.661L63.2569 165.513L62.2161 172.281ZM66.9197 168.095L66.1822 172.891L67.1492 173.04L67.6547 169.752C67.6785 169.597 67.7149 169.425 67.8838 169.293C68.0191 169.185 68.1493 169.175 68.2653 169.193C68.4104 169.215 68.4996 169.278 68.5718 169.388C68.667 169.542 68.6574 169.669 68.638 169.795L68.1162 173.189L69.0831 173.337L69.5886 170.05C69.6124 169.895 69.6489 169.722 69.8177 169.59C69.9308 169.498 70.0542 169.468 70.1993 169.49C70.325 169.51 70.4254 169.565 70.5057 169.686C70.5928 169.828 70.5913 169.966 70.572 170.092L70.0501 173.486L71.0171 173.635L71.5791 169.979C71.6177 169.728 71.646 169.416 71.4942 169.115C71.3045 168.74 70.9832 168.641 70.6834 168.595C70.4803 168.563 70.31 168.577 70.1308 168.648C69.9418 168.718 69.7715 168.86 69.6384 169.018C69.5945 168.853 69.5104 168.691 69.3542 168.549C69.2062 168.417 69.0396 168.342 68.8558 168.314C68.5754 168.27 68.3493 168.325 68.1656 168.425C68.057 168.488 67.9246 168.576 67.8197 168.679L67.8867 168.244L66.9197 168.095ZM73.9702 174.089L74.9371 174.237L75.4531 170.882C75.5036 170.553 75.5251 170.091 75.2306 169.69C75.0245 169.42 74.6905 169.211 74.2554 169.144C73.8106 169.075 73.3903 169.169 73.1114 169.374C72.8548 169.562 72.6131 169.911 72.5559 170.347L73.4745 170.489C73.5035 170.364 73.5682 170.266 73.6478 170.199C73.7735 170.089 73.9259 170.063 74.0613 170.084C74.2064 170.106 74.344 170.177 74.4243 170.298C74.521 170.442 74.5084 170.588 74.4876 170.724L74.4103 171.226C74.115 171.151 73.9312 171.123 73.8636 171.113C73.5831 171.07 73.0357 171.025 72.6586 171.353C72.3276 171.639 72.228 172.158 72.1745 172.506C72.115 172.893 72.0964 173.335 72.3531 173.662C72.5606 173.921 72.8559 173.997 73.0493 174.026C73.2524 174.058 73.4324 174.046 73.6384 173.929C73.7901 173.843 73.9396 173.708 74.0237 173.612L74.043 173.615L73.9702 174.089ZM74.1872 172.677C74.1218 173.102 73.8407 173.257 73.5506 173.213C73.3862 173.187 73.2709 173.1 73.198 172.931C73.14 172.793 73.1414 172.655 73.1623 172.519C73.186 172.365 73.2366 172.165 73.3846 172.039C73.5676 171.879 73.8026 171.895 73.9573 171.919C74.0637 171.935 74.1783 171.963 74.2913 172L74.1872 172.677ZM79.2492 171.317C79.3072 170.94 79.2298 170.542 79.0334 170.274C78.8958 170.075 78.5804 169.809 77.9712 169.715C77.449 169.635 77.1002 169.779 76.877 169.943C76.6413 170.124 76.4315 170.458 76.3587 170.932C76.3215 171.174 76.3208 171.5 76.4949 171.785C76.5425 171.861 76.6883 172.072 77.032 172.283L77.5653 172.612C77.9447 172.849 77.9938 173.044 77.9551 173.296C77.9358 173.422 77.8941 173.564 77.7699 173.663C77.6554 173.764 77.5029 173.791 77.3675 173.77C77.2322 173.749 77.067 173.664 76.9949 173.554C76.9227 173.444 76.9063 173.293 76.9257 173.167L75.9587 173.019C75.9052 173.367 75.9617 173.771 76.1633 174.07C76.324 174.312 76.6394 174.578 77.2196 174.668C77.8288 174.761 78.2223 174.584 78.464 174.364C78.7741 174.085 78.8819 173.706 78.9176 173.474C78.9816 173.058 78.9198 172.751 78.8112 172.556C78.7026 172.362 78.4906 172.131 78.2637 171.997L77.7207 171.666C77.6024 171.599 77.4581 171.507 77.3822 171.357C77.3212 171.239 77.3197 171.12 77.3331 171.032C77.3836 170.704 77.6395 170.585 77.8813 170.622C78.0166 170.643 78.1364 170.701 78.21 170.801C78.2755 170.89 78.3142 171.025 78.3016 171.172L79.2492 171.317Z" fill="white"/>
<path d="M26.7798 159.904L26.814 159.681L26.5915 159.647L26.5573 159.87L26.7798 159.904ZM25.739 166.673L25.5165 166.638L25.4823 166.861L25.7048 166.895L25.739 166.673ZM26.706 166.821L26.6718 167.044L26.8943 167.078L26.9285 166.856L26.706 166.821ZM27.0108 164.839L26.8348 164.699L26.7974 164.746L26.7883 164.805L27.0108 164.839ZM27.7709 163.887L27.991 163.84L27.8916 163.375L27.5949 163.746L27.7709 163.887ZM28.4562 167.09L28.2361 167.138L28.2685 167.289L28.422 167.313L28.4562 167.09ZM29.5102 167.253L29.476 167.475L29.8067 167.526L29.7292 167.2L29.5102 167.253ZM28.4997 163.009L28.3155 162.88L28.2573 162.963L28.2807 163.061L28.4997 163.009ZM30.2996 160.445L30.4838 160.574L30.6921 160.278L30.3338 160.223L30.2996 160.445ZM29.2842 160.289L29.3185 160.066L29.1774 160.045L29.0976 160.163L29.2842 160.289ZM27.2457 163.311L27.0232 163.277L27.4323 163.437L27.2457 163.311ZM27.7468 160.053L27.9693 160.087L28.0035 159.864L27.781 159.83L27.7468 160.053ZM26.5573 159.87L25.5165 166.638L25.9615 166.707L27.0023 159.938L26.5573 159.87ZM25.7048 166.895L26.6718 167.044L26.7402 166.599L25.7732 166.45L25.7048 166.895ZM26.9285 166.856L27.2333 164.873L26.7883 164.805L26.4835 166.787L26.9285 166.856ZM27.1867 164.98L27.9468 164.027L27.5949 163.746L26.8348 164.699L27.1867 164.98ZM27.5507 163.934L28.2361 167.138L28.6764 167.043L27.991 163.84L27.5507 163.934ZM28.422 167.313L29.476 167.475L29.5444 167.03L28.4904 166.868L28.422 167.313ZM29.7292 167.2L28.7188 162.957L28.2807 163.061L29.2912 167.305L29.7292 167.2ZM28.684 163.139L30.4838 160.574L30.1153 160.316L28.3155 162.88L28.684 163.139ZM30.3338 160.223L29.3185 160.066L29.25 160.511L30.2653 160.668L30.3338 160.223ZM29.0976 160.163L27.0591 163.185L27.4323 163.437L29.4709 160.415L29.0976 160.163ZM27.4682 163.345L27.9693 160.087L27.5242 160.018L27.0232 163.277L27.4682 163.345ZM27.781 159.83L26.814 159.681L26.7456 160.126L27.7125 160.275L27.781 159.83ZM31.8636 167.614L31.6411 167.58L31.6069 167.803L31.8294 167.837L31.8636 167.614ZM32.8306 167.763L32.7964 167.986L33.0189 168.02L33.0531 167.797L32.8306 167.763ZM33.124 163.215L33.3056 163.082L33.3028 163.079L33.124 163.215ZM31.0049 162.899L31.138 163.081L31.0049 162.899ZM30.4493 163.873L30.2261 163.844L30.1975 164.062L30.4151 164.096L30.4493 163.873ZM31.368 164.014L31.3337 164.237L31.5398 164.269L31.5872 164.066L31.368 164.014ZM31.5412 163.724L31.6862 163.897L31.689 163.894L31.5412 163.724ZM32.3178 163.824L32.1301 163.948L32.1311 163.95L32.3178 163.824ZM32.3037 164.752L32.2482 164.97L32.4886 165.031L32.5262 164.786L32.3037 164.752ZM30.5521 164.879L30.6992 165.049L30.6998 165.049L30.5521 164.879ZM30.2466 167.188L30.0695 167.327L30.0707 167.328L30.2466 167.188ZM31.5319 167.455L31.4213 167.258L31.4209 167.259L31.5319 167.455ZM31.9171 167.138L31.9514 166.915L31.8292 166.896L31.7478 166.989L31.9171 167.138ZM31.9365 167.141L32.159 167.175L32.1932 166.952L31.9707 166.918L31.9365 167.141ZM31.0915 166.456L30.884 166.544L30.8846 166.545L31.0915 166.456ZM31.2781 165.564L31.4238 165.736L31.4262 165.734L31.2781 165.564ZM32.1848 165.526L32.4073 165.56L32.4363 165.371L32.2551 165.312L32.1848 165.526ZM31.8294 167.837L32.7964 167.986L32.8648 167.541L31.8978 167.392L31.8294 167.837ZM33.0531 167.797L33.569 164.442L33.124 164.373L32.6081 167.729L33.0531 167.797ZM33.569 164.442C33.6219 164.098 33.655 163.559 33.3056 163.082L32.9425 163.349C33.1822 163.675 33.1722 164.06 33.124 164.373L33.569 164.442ZM33.3028 163.079C33.0592 162.76 32.6719 162.522 32.1831 162.447L32.1146 162.892C32.4961 162.951 32.7768 163.132 32.9452 163.352L33.3028 163.079ZM32.1831 162.447C31.6913 162.371 31.2078 162.471 30.8717 162.718L31.138 163.081C31.3598 162.918 31.7167 162.831 32.1146 162.892L32.1831 162.447ZM30.8717 162.718C30.5678 162.941 30.2917 163.344 30.2261 163.844L30.6726 163.902C30.7215 163.529 30.9288 163.234 31.138 163.081L30.8717 162.718ZM30.4151 164.096L31.3337 164.237L31.4022 163.792L30.4835 163.651L30.4151 164.096ZM31.5872 164.066C31.6052 163.988 31.6441 163.932 31.6862 163.897L31.3963 163.552C31.2792 163.651 31.1887 163.792 31.1487 163.963L31.5872 164.066ZM31.689 163.894C31.7556 163.836 31.8376 163.819 31.9206 163.832L31.989 163.387C31.8012 163.358 31.5783 163.394 31.3935 163.554L31.689 163.894ZM31.9206 163.832C32.0207 163.848 32.0936 163.893 32.1301 163.948L32.5054 163.7C32.3812 163.512 32.179 163.416 31.989 163.387L31.9206 163.832ZM32.1311 163.95C32.1765 164.017 32.1783 164.087 32.1585 164.215L32.6036 164.284C32.6254 164.141 32.6525 163.918 32.5045 163.698L32.1311 163.95ZM32.1585 164.215L32.0812 164.718L32.5262 164.786L32.6036 164.284L32.1585 164.215ZM32.3592 164.534C32.0546 164.457 31.8632 164.427 31.7912 164.416L31.7228 164.861C31.7862 164.871 31.9623 164.898 32.2482 164.97L32.3592 164.534ZM31.7912 164.416C31.6422 164.393 31.4131 164.368 31.1658 164.396C30.9185 164.423 30.6384 164.505 30.4043 164.709L30.6998 165.049C30.8428 164.924 31.025 164.864 31.2158 164.843C31.4066 164.822 31.5914 164.841 31.7228 164.861L31.7912 164.416ZM30.405 164.708C30.1979 164.887 30.0731 165.129 29.9934 165.358C29.9133 165.587 29.8726 165.821 29.8454 165.997L30.2905 166.066C30.3168 165.894 30.3527 165.695 30.4185 165.506C30.4848 165.316 30.5753 165.156 30.6992 165.049L30.405 164.708ZM29.8454 165.997C29.7857 166.386 29.7485 166.918 30.0696 167.327L30.4236 167.048C30.2313 166.804 30.2313 166.451 30.2905 166.066L29.8454 165.997ZM30.0707 167.328C30.3321 167.655 30.6981 167.742 30.9086 167.775L30.977 167.329C30.8007 167.302 30.5761 167.239 30.4224 167.047L30.0707 167.328ZM30.9086 167.775C31.1483 167.811 31.3824 167.798 31.6429 167.65L31.4209 167.259C31.2694 167.345 31.1434 167.355 30.977 167.329L30.9086 167.775ZM31.6425 167.651C31.8212 167.55 31.9899 167.396 32.0865 167.286L31.7478 166.989C31.6763 167.071 31.546 167.188 31.4213 167.258L31.6425 167.651ZM31.8829 167.36L31.9023 167.363L31.9707 166.918L31.9514 166.915L31.8829 167.36ZM31.714 167.106L31.6411 167.58L32.0862 167.649L32.159 167.175L31.714 167.106ZM31.8582 166.168C31.8323 166.337 31.769 166.423 31.7113 166.467C31.6529 166.511 31.5738 166.53 31.4783 166.516L31.4098 166.961C31.6044 166.991 31.8109 166.955 31.982 166.827C32.1537 166.697 32.2637 166.494 32.3032 166.237L31.8582 166.168ZM31.4783 166.516C31.4277 166.508 31.3958 166.493 31.3728 166.475C31.3495 166.456 31.3231 166.425 31.2983 166.367L30.8846 166.545C30.9328 166.657 31.0005 166.754 31.0941 166.828C31.1881 166.902 31.296 166.943 31.4098 166.961L31.4783 166.516ZM31.2989 166.369C31.2637 166.285 31.2606 166.194 31.2782 166.079L30.8332 166.011C30.8093 166.167 30.8032 166.352 30.884 166.544L31.2989 166.369ZM31.2782 166.079C31.3011 165.931 31.343 165.805 31.4238 165.736L31.1323 165.393C30.9172 165.576 30.8579 165.85 30.8332 166.011L31.2782 166.079ZM31.4262 165.734C31.5271 165.646 31.6683 165.644 31.8166 165.667L31.885 165.222C31.7238 165.197 31.395 165.163 31.1299 165.395L31.4262 165.734ZM31.8166 165.667C31.91 165.682 32.0125 165.706 32.1145 165.74L32.2551 165.312C32.1309 165.271 32.0043 165.241 31.885 165.222L31.8166 165.667ZM31.9623 165.492L31.8582 166.168L32.3032 166.237L32.4073 165.56L31.9623 165.492ZM33.9245 163.022L33.9587 162.799L33.677 162.756L33.7001 163.04L33.9245 163.022ZM34.328 167.993L34.1036 168.012L34.118 168.189L34.2938 168.216L34.328 167.993ZM35.15 168.12L35.1158 168.342L35.2986 168.37L35.3616 168.196L35.15 168.12ZM36.1821 165.269L36.2163 165.047L36.0335 165.019L35.9705 165.193L36.1821 165.269ZM36.2305 165.277L36.4554 165.267L36.4476 165.082L36.2647 165.054L36.2305 165.277ZM36.3587 168.306L36.1337 168.315L36.1416 168.5L36.3245 168.528L36.3587 168.306ZM37.1806 168.432L37.1464 168.654L37.3222 168.681L37.3892 168.517L37.1806 168.432ZM39.0591 163.811L39.2676 163.896L39.375 163.632L39.0933 163.589L39.0591 163.811ZM38.0921 163.663L38.1263 163.44L37.9434 163.412L37.8804 163.586L38.0921 163.663ZM37.0257 166.607L36.8008 166.615L37.2374 166.683L37.0257 166.607ZM36.9027 163.48L37.1277 163.471L37.1204 163.285L36.937 163.257L36.9027 163.48ZM36.1002 163.356L36.1344 163.134L35.9498 163.105L35.8878 163.282L36.1002 163.356ZM35.0628 166.305L34.8379 166.316L35.2752 166.38L35.0628 166.305ZM34.9108 163.173L35.1357 163.162L35.1267 162.979L34.945 162.951L34.9108 163.173ZM33.7001 163.04L34.1036 168.012L34.5524 167.975L34.1489 163.004L33.7001 163.04ZM34.2938 168.216L35.1158 168.342L35.1842 167.897L34.3623 167.771L34.2938 168.216ZM35.3616 168.196L36.3938 165.346L35.9705 165.193L34.9383 168.043L35.3616 168.196ZM36.1479 165.492L36.1963 165.499L36.2647 165.054L36.2163 165.047L36.1479 165.492ZM36.0056 165.286L36.1337 168.315L36.5836 168.296L36.4554 165.267L36.0056 165.286ZM36.3245 168.528L37.1464 168.654L37.2148 168.209L36.3929 168.083L36.3245 168.528ZM37.3892 168.517L39.2676 163.896L38.8505 163.726L36.972 168.347L37.3892 168.517ZM39.0933 163.589L38.1263 163.44L38.0579 163.885L39.0249 164.034L39.0933 163.589ZM37.8804 163.586L36.8141 166.53L37.2374 166.683L38.3038 163.739L37.8804 163.586ZM37.2507 166.598L37.1277 163.471L36.6778 163.489L36.8008 166.615L37.2507 166.598ZM36.937 163.257L36.1344 163.134L36.0659 163.579L36.8685 163.702L36.937 163.257ZM35.8878 163.282L34.8504 166.23L35.2752 166.38L36.3125 163.431L35.8878 163.282ZM35.2877 166.294L35.1357 163.162L34.6859 163.184L34.8379 166.316L35.2877 166.294ZM34.945 162.951L33.9587 162.799L33.8903 163.244L34.8766 163.396L34.945 162.951ZM39.9887 162.46L40.0229 162.237L39.8004 162.203L39.7662 162.425L39.9887 162.46ZM39.7642 163.92L39.73 164.142L39.9525 164.176L39.9867 163.954L39.7642 163.92ZM39.2711 163.844L39.3053 163.621L39.0828 163.587L39.0485 163.81L39.2711 163.844ZM39.1521 164.617L38.9296 164.583L38.8954 164.806L39.1179 164.84L39.1521 164.617ZM39.6453 164.693L39.8678 164.727L39.902 164.505L39.6795 164.471L39.6453 164.693ZM39.3592 168.42L39.5467 168.296L39.5452 168.294L39.3592 168.42ZM40.6126 168.96L40.5784 169.182L40.8009 169.216L40.8351 168.994L40.6126 168.96ZM40.7509 168.06L40.9734 168.095L41.0076 167.872L40.7851 167.838L40.7509 168.06ZM40.2807 167.899L40.1109 168.047L40.1134 168.05L40.2807 167.899ZM40.6122 164.842L40.6464 164.619L40.4239 164.585L40.3897 164.808L40.6122 164.842ZM41.2311 164.937L41.1969 165.16L41.4194 165.194L41.4536 164.971L41.2311 164.937ZM41.35 164.163L41.5726 164.198L41.6068 163.975L41.3842 163.941L41.35 164.163ZM40.7312 164.068L40.5087 164.034L40.4744 164.257L40.697 164.291L40.7312 164.068ZM40.9557 162.608L41.1782 162.642L41.2124 162.42L40.9899 162.386L40.9557 162.608ZM39.7662 162.425L39.5417 163.885L39.9867 163.954L40.2112 162.494L39.7662 162.425ZM39.7984 163.697L39.3053 163.621L39.2368 164.066L39.73 164.142L39.7984 163.697ZM39.0485 163.81L38.9296 164.583L39.3746 164.652L39.4936 163.878L39.0485 163.81ZM39.1179 164.84L39.611 164.916L39.6795 164.471L39.1863 164.395L39.1179 164.84ZM39.4227 164.659L39.005 167.376L39.45 167.445L39.8678 164.727L39.4227 164.659ZM39.005 167.376C38.9614 167.66 38.8914 168.134 39.1732 168.547L39.5452 168.294C39.3747 168.044 39.4043 167.741 39.45 167.445L39.005 167.376ZM39.1717 168.545C39.4828 169.013 40.0483 169.101 40.3173 169.142L40.3857 168.697C40.0939 168.652 39.734 168.578 39.5467 168.296L39.1717 168.545ZM40.3173 169.142L40.5784 169.182L40.6468 168.737L40.3857 168.697L40.3173 169.142ZM40.8351 168.994L40.9734 168.095L40.5283 168.026L40.3901 168.925L40.8351 168.994ZM40.7851 167.838L40.6594 167.819L40.5909 168.264L40.7166 168.283L40.7851 167.838ZM40.6594 167.819C40.615 167.812 40.5692 167.804 40.5255 167.79C40.4805 167.775 40.4577 167.759 40.4481 167.748L40.1134 168.05C40.1967 168.142 40.3027 168.191 40.3849 168.218C40.4683 168.245 40.5483 168.257 40.5909 168.264L40.6594 167.819ZM40.4506 167.751C40.4402 167.739 40.4266 167.711 40.4221 167.656C40.4178 167.604 40.4238 167.549 40.4303 167.506L39.9853 167.438C39.9769 167.492 39.9648 167.588 39.9733 167.693C39.9817 167.796 40.0119 167.933 40.1109 168.047L40.4506 167.751ZM40.4303 167.506L40.8347 164.876L40.3897 164.808L39.9853 167.438L40.4303 167.506ZM40.578 165.064L41.1969 165.16L41.2653 164.715L40.6464 164.619L40.578 165.064ZM41.4536 164.971L41.5726 164.198L41.1275 164.129L41.0086 164.903L41.4536 164.971ZM41.3842 163.941L40.7654 163.846L40.697 164.291L41.3158 164.386L41.3842 163.941ZM40.9537 164.103L41.1782 162.642L40.7332 162.574L40.5087 164.034L40.9537 164.103ZM40.9899 162.386L40.0229 162.237L39.9545 162.682L40.9215 162.831L40.9899 162.386ZM43.2803 169.37L43.0578 169.336L43.0235 169.558L43.2461 169.592L43.2803 169.37ZM44.2472 169.518L44.213 169.741L44.4355 169.775L44.4698 169.553L44.2472 169.518ZM44.5407 164.971L44.7222 164.838L44.7194 164.834L44.5407 164.971ZM42.4215 164.655L42.5547 164.836L42.4215 164.655ZM41.866 165.629L41.6428 165.599L41.6141 165.818L41.8318 165.851L41.866 165.629ZM42.7846 165.77L42.7504 165.992L42.9564 166.024L43.0038 165.821L42.7846 165.77ZM42.9579 165.48L43.1028 165.652L43.1056 165.65L42.9579 165.48ZM43.7344 165.579L43.5468 165.704L43.5477 165.705L43.7344 165.579ZM43.7204 166.508L43.6649 166.726L43.9052 166.787L43.9429 166.542L43.7204 166.508ZM41.9687 166.634L42.1158 166.805L42.1165 166.804L41.9687 166.634ZM41.6632 168.943L41.4862 169.082L41.4874 169.084L41.6632 168.943ZM42.9485 169.21L42.8379 169.014L42.8375 169.014L42.9485 169.21ZM43.3338 168.893L43.368 168.671L43.2459 168.652L43.1644 168.745L43.3338 168.893ZM43.3531 168.896L43.5756 168.93L43.6099 168.708L43.3873 168.673L43.3531 168.896ZM42.5081 168.212L42.3007 168.299L42.3013 168.301L42.5081 168.212ZM42.6947 167.32L42.8405 167.492L42.8429 167.489L42.6947 167.32ZM43.6014 167.281L43.8239 167.315L43.8529 167.127L43.6718 167.067L43.6014 167.281ZM43.2461 169.592L44.213 169.741L44.2815 169.296L43.3145 169.147L43.2461 169.592ZM44.4698 169.553L44.9857 166.197L44.5406 166.129L44.0247 169.484L44.4698 169.553ZM44.9857 166.197C45.0386 165.853 45.0717 165.314 44.7222 164.838L44.3591 165.104C44.5988 165.431 44.5888 165.815 44.5406 166.129L44.9857 166.197ZM44.7194 164.834C44.4758 164.516 44.0885 164.278 43.5997 164.202L43.5313 164.647C43.9127 164.706 44.1934 164.887 44.3619 165.108L44.7194 164.834ZM43.5997 164.202C43.108 164.127 42.6245 164.227 42.2884 164.473L42.5547 164.836C42.7764 164.674 43.1334 164.586 43.5313 164.647L43.5997 164.202ZM42.2884 164.473C41.9844 164.696 41.7083 165.099 41.6428 165.599L42.0892 165.658C42.1381 165.285 42.3454 164.99 42.5547 164.836L42.2884 164.473ZM41.8318 165.851L42.7504 165.992L42.8188 165.547L41.9002 165.406L41.8318 165.851ZM43.0038 165.821C43.0219 165.744 43.0607 165.687 43.1028 165.652L42.8129 165.307C42.6958 165.406 42.6053 165.548 42.5654 165.719L43.0038 165.821ZM43.1056 165.65C43.1722 165.592 43.2543 165.575 43.3372 165.588L43.4056 165.143C43.2178 165.114 42.9949 165.149 42.8101 165.31L43.1056 165.65ZM43.3372 165.588C43.4373 165.603 43.5103 165.649 43.5468 165.704L43.9221 165.455C43.7979 165.268 43.5956 165.172 43.4056 165.143L43.3372 165.588ZM43.5477 165.705C43.5931 165.772 43.5949 165.842 43.5752 165.971L44.0202 166.039C44.0421 165.897 44.0691 165.673 43.9211 165.454L43.5477 165.705ZM43.5752 165.971L43.4979 166.473L43.9429 166.542L44.0202 166.039L43.5752 165.971ZM43.7759 166.289C43.4712 166.212 43.2799 166.182 43.2079 166.171L43.1394 166.616C43.2028 166.626 43.3789 166.653 43.6649 166.726L43.7759 166.289ZM43.2079 166.171C43.0589 166.148 42.8297 166.123 42.5824 166.151C42.3351 166.179 42.055 166.261 41.8209 166.464L42.1165 166.804C42.2594 166.68 42.4417 166.62 42.6324 166.599C42.8233 166.577 43.008 166.596 43.1394 166.616L43.2079 166.171ZM41.8216 166.464C41.6145 166.642 41.4897 166.885 41.41 167.113C41.3299 167.342 41.2892 167.576 41.2621 167.753L41.7071 167.821C41.7335 167.65 41.7693 167.45 41.8352 167.261C41.9014 167.072 41.9919 166.912 42.1158 166.805L41.8216 166.464ZM41.2621 167.753C41.2023 168.142 41.1652 168.674 41.4862 169.082L41.8402 168.804C41.6479 168.559 41.6479 168.206 41.7071 167.821L41.2621 167.753ZM41.4874 169.084C41.7487 169.41 42.1148 169.498 42.3252 169.53L42.3936 169.085C42.2173 169.058 41.9927 168.995 41.839 168.802L41.4874 169.084ZM42.3252 169.53C42.5649 169.567 42.799 169.553 43.0595 169.406L42.8375 169.014C42.686 169.1 42.5601 169.11 42.3936 169.085L42.3252 169.53ZM43.0591 169.406C43.2379 169.305 43.4065 169.152 43.5031 169.041L43.1644 168.745C43.093 168.826 42.9626 168.944 42.8379 169.014L43.0591 169.406ZM43.2996 169.116L43.3189 169.119L43.3873 168.673L43.368 168.671L43.2996 169.116ZM43.1306 168.862L43.0578 169.336L43.5028 169.404L43.5756 168.93L43.1306 168.862ZM43.2748 167.924C43.2489 168.092 43.1857 168.179 43.1279 168.222C43.0695 168.266 42.9904 168.286 42.8949 168.271L42.8265 168.716C43.021 168.746 43.2276 168.711 43.3986 168.582C43.5703 168.453 43.6803 168.249 43.7199 167.992L43.2748 167.924ZM42.8949 168.271C42.8443 168.263 42.8124 168.248 42.7895 168.23C42.7661 168.212 42.7397 168.18 42.7149 168.123L42.3013 168.301C42.3494 168.413 42.4171 168.51 42.5107 168.584C42.6047 168.658 42.7127 168.699 42.8265 168.716L42.8949 168.271ZM42.7155 168.124C42.6803 168.041 42.6772 167.95 42.6949 167.835L42.2498 167.766C42.2259 167.922 42.2198 168.108 42.3007 168.299L42.7155 168.124ZM42.6949 167.835C42.7177 167.686 42.7596 167.56 42.8405 167.492L42.549 167.148C42.3338 167.331 42.2746 167.605 42.2498 167.766L42.6949 167.835ZM42.8429 167.489C42.9437 167.401 43.085 167.4 43.2332 167.423L43.3017 166.978C43.1405 166.953 42.8117 166.919 42.5466 167.15L42.8429 167.489ZM43.2332 167.423C43.3267 167.437 43.4291 167.461 43.5311 167.495L43.6718 167.067C43.5476 167.026 43.421 166.996 43.3017 166.978L43.2332 167.423ZM43.3789 167.247L43.2748 167.924L43.7199 167.992L43.8239 167.315L43.3789 167.247ZM46.0317 164.883L46.0659 164.661L45.8434 164.627L45.8092 164.849L46.0317 164.883ZM45.2942 169.679L45.0717 169.645L45.0375 169.868L45.26 169.902L45.2942 169.679ZM46.2612 169.828L46.227 170.051L46.4495 170.085L46.4837 169.862L46.2612 169.828ZM48.1375 166.187L48.0672 166.401L48.3196 166.484L48.36 166.221L48.1375 166.187ZM48.2966 165.152L48.5191 165.187L48.5533 164.964L48.3308 164.93L48.2966 165.152ZM46.9377 165.557L46.8076 165.741L46.9557 165.846L47.0897 165.723L46.9377 165.557ZM46.9198 165.544L46.6973 165.51L46.6762 165.648L46.7897 165.728L46.9198 165.544ZM46.9986 165.032L47.2212 165.066L47.2554 164.844L47.0329 164.809L46.9986 165.032ZM45.8092 164.849L45.0717 169.645L45.5167 169.714L46.2542 164.918L45.8092 164.849ZM45.26 169.902L46.227 170.051L46.2954 169.606L45.3284 169.457L45.26 169.902ZM46.4837 169.862L46.9059 167.116L46.4609 167.048L46.0387 169.794L46.4837 169.862ZM46.9059 167.116C46.9766 166.657 47.1821 166.471 47.3827 166.394C47.6039 166.308 47.8698 166.336 48.0672 166.401L48.2078 165.973C47.9529 165.889 47.5728 165.838 47.2206 165.973C46.8478 166.117 46.5523 166.453 46.4609 167.048L46.9059 167.116ZM48.36 166.221L48.5191 165.187L48.0741 165.118L47.915 166.153L48.36 166.221ZM48.3308 164.93C47.9507 164.871 47.3248 164.898 46.7857 165.391L47.0897 165.723C47.4951 165.352 47.9656 165.329 48.2624 165.375L48.3308 164.93ZM47.0678 165.373L47.0499 165.361L46.7897 165.728L46.8076 165.741L47.0678 165.373ZM47.1424 165.579L47.2212 165.066L46.7761 164.998L46.6973 165.51L47.1424 165.579ZM47.0329 164.809L46.0659 164.661L45.9975 165.106L46.9644 165.255L47.0329 164.809ZM51.5206 163.708L51.5548 163.486L51.3323 163.451L51.2981 163.674L51.5206 163.708ZM50.4798 170.477L50.2573 170.443L50.2231 170.665L50.4456 170.699L50.4798 170.477ZM53.4967 170.941L53.4625 171.163L53.685 171.197L53.7193 170.975L53.4967 170.941ZM53.638 170.022L53.8605 170.056L53.8947 169.834L53.6722 169.8L53.638 170.022ZM51.588 169.707L51.3655 169.673L51.3313 169.895L51.5538 169.929L51.588 169.707ZM52.4875 163.857L52.7101 163.891L52.7443 163.668L52.5218 163.634L52.4875 163.857ZM51.2981 163.674L50.2573 170.443L50.7023 170.511L51.7431 163.742L51.2981 163.674ZM50.4456 170.699L53.4625 171.163L53.531 170.718L50.514 170.254L50.4456 170.699ZM53.7193 170.975L53.8605 170.056L53.4155 169.988L53.2742 170.906L53.7193 170.975ZM53.6722 169.8L51.6222 169.484L51.5538 169.929L53.6038 170.245L53.6722 169.8ZM51.8105 169.741L52.7101 163.891L52.265 163.823L51.3655 169.673L51.8105 169.741ZM52.5218 163.634L51.5548 163.486L51.4864 163.931L52.4533 164.079L52.5218 163.634ZM56.2645 171.366L56.0419 171.332L56.0077 171.555L56.2302 171.589L56.2645 171.366ZM57.2314 171.515L57.1972 171.737L57.4197 171.772L57.4539 171.549L57.2314 171.515ZM57.5249 166.967L57.7064 166.834L57.7036 166.83L57.5249 166.967ZM55.4057 166.651L55.5389 166.833L55.4057 166.651ZM54.8502 167.625L54.6269 167.596L54.5983 167.814L54.8159 167.848L54.8502 167.625ZM55.7688 167.766L55.7346 167.989L55.9406 168.02L55.988 167.817L55.7688 167.766ZM55.9421 167.476L56.087 167.648L56.0898 167.646L55.9421 167.476ZM56.7186 167.576L56.5309 167.7L56.5319 167.702L56.7186 167.576ZM56.7046 168.504L56.6491 168.722L56.8894 168.783L56.9271 168.538L56.7046 168.504ZM54.9529 168.631L55.1 168.801L55.1007 168.8L54.9529 168.631ZM54.6474 170.939L54.4704 171.079L54.4715 171.08L54.6474 170.939ZM55.9327 171.206L55.8221 171.01L55.8217 171.011L55.9327 171.206ZM56.318 170.889L56.3522 170.667L56.23 170.648L56.1486 170.741L56.318 170.889ZM56.3373 170.892L56.5598 170.927L56.594 170.704L56.3715 170.67L56.3373 170.892ZM55.4923 170.208L55.2848 170.296L55.2855 170.297L55.4923 170.208ZM55.6789 169.316L55.8247 169.488L55.8271 169.486L55.6789 169.316ZM56.5856 169.278L56.8081 169.312L56.8371 169.123L56.6559 169.064L56.5856 169.278ZM56.2302 171.589L57.1972 171.737L57.2656 171.292L56.2987 171.144L56.2302 171.589ZM57.4539 171.549L57.9699 168.194L57.5248 168.125L57.0089 171.481L57.4539 171.549ZM57.9699 168.194C58.0228 167.85 58.0558 167.311 57.7064 166.834L57.3433 167.1C57.583 167.427 57.573 167.812 57.5248 168.125L57.9699 168.194ZM57.7036 166.83C57.46 166.512 57.0727 166.274 56.5839 166.199L56.5155 166.644C56.8969 166.703 57.1776 166.884 57.3461 167.104L57.7036 166.83ZM56.5839 166.199C56.0922 166.123 55.6087 166.223 55.2726 166.47L55.5389 166.833C55.7606 166.67 56.1176 166.583 56.5155 166.644L56.5839 166.199ZM55.2726 166.47C54.9686 166.693 54.6925 167.096 54.6269 167.596L55.0734 167.654C55.1223 167.281 55.3296 166.986 55.5389 166.833L55.2726 166.47ZM54.8159 167.848L55.7346 167.989L55.803 167.544L54.8844 167.402L54.8159 167.848ZM55.988 167.817C56.0061 167.74 56.0449 167.684 56.087 167.648L55.7971 167.304C55.68 167.402 55.5895 167.544 55.5495 167.715L55.988 167.817ZM56.0898 167.646C56.1564 167.588 56.2385 167.571 56.3214 167.584L56.3898 167.139C56.202 167.11 55.9791 167.146 55.7943 167.306L56.0898 167.646ZM56.3214 167.584C56.4215 167.599 56.4945 167.645 56.5309 167.7L56.9063 167.451C56.7821 167.264 56.5798 167.168 56.3898 167.139L56.3214 167.584ZM56.5319 167.702C56.5773 167.769 56.5791 167.839 56.5594 167.967L57.0044 168.035C57.0263 167.893 57.0533 167.67 56.9053 167.45L56.5319 167.702ZM56.5594 167.967L56.482 168.47L56.9271 168.538L57.0044 168.035L56.5594 167.967ZM56.76 168.286C56.4554 168.208 56.2641 168.179 56.1921 168.168L56.1236 168.613C56.187 168.623 56.3631 168.649 56.6491 168.722L56.76 168.286ZM56.1921 168.168C56.0431 168.145 55.8139 168.12 55.5666 168.148C55.3193 168.175 55.0392 168.257 54.8051 168.461L55.1007 168.8C55.2436 168.676 55.4259 168.616 55.6166 168.595C55.8074 168.574 55.9922 168.593 56.1236 168.613L56.1921 168.168ZM54.8058 168.46C54.5987 168.639 54.4739 168.881 54.3942 169.109C54.3141 169.339 54.2734 169.573 54.2462 169.749L54.6913 169.818C54.7176 169.646 54.7535 169.446 54.8193 169.258C54.8856 169.068 54.9761 168.908 55.1 168.801L54.8058 168.46ZM54.2462 169.749C54.1865 170.138 54.1493 170.67 54.4704 171.079L54.8244 170.8C54.6321 170.556 54.6321 170.203 54.6913 169.818L54.2462 169.749ZM54.4715 171.08C54.7329 171.407 55.099 171.494 55.3094 171.526L55.3778 171.081C55.2015 171.054 54.9769 170.991 54.8232 170.799L54.4715 171.08ZM55.3094 171.526C55.5491 171.563 55.7832 171.55 56.0437 171.402L55.8217 171.011C55.6702 171.096 55.5442 171.107 55.3778 171.081L55.3094 171.526ZM56.0433 171.402C56.2221 171.302 56.3907 171.148 56.4873 171.038L56.1486 170.741C56.0772 170.823 55.9468 170.94 55.8221 171.01L56.0433 171.402ZM56.2838 171.112L56.3031 171.115L56.3715 170.67L56.3522 170.667L56.2838 171.112ZM56.1148 170.858L56.0419 171.332L56.487 171.4L56.5598 170.927L56.1148 170.858ZM56.259 169.92C56.2331 170.089 56.1699 170.175 56.1121 170.219C56.0537 170.263 55.9746 170.282 55.8791 170.268L55.8107 170.713C56.0052 170.743 56.2118 170.707 56.3828 170.578C56.5545 170.449 56.6645 170.246 56.7041 169.989L56.259 169.92ZM55.8791 170.268C55.8285 170.26 55.7966 170.245 55.7737 170.226C55.7503 170.208 55.7239 170.177 55.6991 170.119L55.2855 170.297C55.3336 170.409 55.4013 170.506 55.4949 170.58C55.5889 170.654 55.6969 170.695 55.8107 170.713L55.8791 170.268ZM55.6997 170.121C55.6645 170.037 55.6614 169.946 55.6791 169.831L55.234 169.763C55.2101 169.918 55.204 170.104 55.2848 170.296L55.6997 170.121ZM55.6791 169.831C55.7019 169.682 55.7438 169.557 55.8247 169.488L55.5332 169.145C55.318 169.328 55.2588 169.602 55.234 169.763L55.6791 169.831ZM55.8271 169.486C55.9279 169.398 56.0692 169.396 56.2174 169.419L56.2858 168.974C56.1247 168.949 55.7958 168.915 55.5307 169.147L55.8271 169.486ZM56.2174 169.419C56.3108 169.433 56.4133 169.458 56.5153 169.491L56.6559 169.064C56.5318 169.023 56.4052 168.992 56.2858 168.974L56.2174 169.419ZM56.3631 169.243L56.259 169.92L56.7041 169.989L56.8081 169.312L56.3631 169.243ZM58.2784 171.676L58.0559 171.642L58.0217 171.864L58.2442 171.898L58.2784 171.676ZM59.2454 171.825L59.2111 172.047L59.4337 172.081L59.4679 171.859L59.2454 171.825ZM59.452 170.481L59.2831 170.332L59.2395 170.381L59.2295 170.446L59.452 170.481ZM60.0277 169.827L60.2461 169.772L60.1419 169.356L59.8587 169.678L60.0277 169.827ZM60.5798 172.03L60.3614 172.085L60.3978 172.23L60.5456 172.252L60.5798 172.03ZM61.6241 172.19L61.5899 172.413L61.9456 172.468L61.8392 172.124L61.6241 172.19ZM60.6785 169.135L60.5041 168.992L60.4277 169.086L60.4634 169.201L60.6785 169.135ZM62.1295 167.359L62.3038 167.501L62.553 167.196L62.1637 167.136L62.1295 167.359ZM61.1625 167.21L61.1967 166.987L61.0658 166.967L60.9846 167.072L61.1625 167.21ZM59.681 169.12L59.6468 169.343L59.7777 169.363L59.8589 169.258L59.681 169.12ZM59.6617 169.117L59.4392 169.083L59.4049 169.305L59.6275 169.34L59.6617 169.117ZM60.2861 165.056L60.5086 165.09L60.5429 164.868L60.3203 164.833L60.2861 165.056ZM59.3192 164.907L59.3534 164.685L59.1309 164.65L59.0966 164.873L59.3192 164.907ZM58.2442 171.898L59.2111 172.047L59.2796 171.602L58.3126 171.453L58.2442 171.898ZM59.4679 171.859L59.6745 170.515L59.2295 170.446L59.0228 171.79L59.4679 171.859ZM59.621 170.629L60.1967 169.975L59.8587 169.678L59.2831 170.332L59.621 170.629ZM59.8093 169.881L60.3614 172.085L60.7982 171.975L60.2461 169.772L59.8093 169.881ZM60.5456 172.252L61.5899 172.413L61.6583 171.968L60.614 171.807L60.5456 172.252ZM61.8392 172.124L60.8935 169.068L60.4634 169.201L61.409 172.257L61.8392 172.124ZM60.8528 169.277L62.3038 167.501L61.9551 167.216L60.5041 168.992L60.8528 169.277ZM62.1637 167.136L61.1967 166.987L61.1283 167.432L62.0953 167.581L62.1637 167.136ZM60.9846 167.072L59.5031 168.982L59.8589 169.258L61.3404 167.348L60.9846 167.072ZM59.7152 168.898L59.6959 168.895L59.6275 169.34L59.6468 169.343L59.7152 168.898ZM59.8842 169.151L60.5086 165.09L60.0636 165.022L59.4392 169.083L59.8842 169.151ZM60.3203 164.833L59.3534 164.685L59.2849 165.13L60.2519 165.278L60.3203 164.833ZM59.0966 164.873L58.0559 171.642L58.5009 171.71L59.5417 164.941L59.0966 164.873ZM62.2161 172.281L61.9936 172.247L61.9594 172.47L62.1819 172.504L62.2161 172.281ZM63.1831 172.43L63.1489 172.653L63.3714 172.687L63.4056 172.464L63.1831 172.43ZM63.9177 168.683L63.7845 168.501L63.7788 168.506L63.9177 168.683ZM64.6251 168.782L64.4368 168.905L64.4383 168.907L64.6251 168.782ZM64.1694 172.582L63.9469 172.548L63.9127 172.77L64.1352 172.804L64.1694 172.582ZM65.1364 172.73L65.1022 172.953L65.3247 172.987L65.3589 172.765L65.1364 172.73ZM65.5622 168.094L65.3775 168.223L65.3782 168.224L65.5622 168.094ZM64.2233 167.789L64.1365 167.582L64.1358 167.582L64.2233 167.789ZM63.8611 168.021L63.6386 167.986L63.5427 168.61L64.0117 168.188L63.8611 168.021ZM64.2239 165.661L64.4464 165.696L64.4806 165.473L64.2581 165.439L64.2239 165.661ZM63.2569 165.513L63.2911 165.29L63.0686 165.256L63.0344 165.478L63.2569 165.513ZM62.1819 172.504L63.1489 172.653L63.2173 172.208L62.2504 172.059L62.1819 172.504ZM63.4056 172.464L63.9111 169.177L63.4661 169.108L62.9606 172.396L63.4056 172.464ZM63.9111 169.177C63.9338 169.03 63.9606 168.935 64.0566 168.86L63.7788 168.506C63.5371 168.695 63.4911 168.946 63.4661 169.108L63.9111 169.177ZM64.0508 168.864C64.1009 168.827 64.1708 168.791 64.2747 168.807L64.3431 168.362C64.0796 168.321 63.8906 168.423 63.7845 168.501L64.0508 168.864ZM64.2747 168.807C64.3596 168.82 64.4012 168.851 64.4368 168.905L64.8133 168.658C64.7046 168.492 64.5484 168.394 64.3431 168.362L64.2747 168.807ZM64.4383 168.907C64.4848 168.976 64.485 169.048 64.4688 169.153L64.9138 169.222C64.9333 169.095 64.9588 168.874 64.8118 168.656L64.4383 168.907ZM64.4688 169.153L63.9469 172.548L64.3919 172.616L64.9138 169.222L64.4688 169.153ZM64.1352 172.804L65.1022 172.953L65.1706 172.508L64.2036 172.359L64.1352 172.804ZM65.3589 172.765L65.9402 168.984L65.4952 168.915L64.9139 172.696L65.3589 172.765ZM65.9402 168.984C65.9783 168.737 66.0095 168.338 65.7462 167.964L65.3782 168.224C65.5374 168.45 65.5286 168.698 65.4952 168.915L65.9402 168.984ZM65.7469 167.966C65.5412 167.67 65.2492 167.531 64.924 167.481L64.8555 167.926C65.0912 167.962 65.2588 168.053 65.3775 168.223L65.7469 167.966ZM64.924 167.481C64.593 167.43 64.355 167.49 64.1365 167.582L64.3102 167.997C64.4725 167.929 64.6257 167.891 64.8555 167.926L64.924 167.481ZM64.1358 167.582C63.9732 167.65 63.831 167.745 63.7105 167.853L64.0117 168.188C64.098 168.11 64.1982 168.044 64.3108 167.997L64.1358 167.582ZM64.0836 168.055L64.4464 165.696L64.0014 165.627L63.6386 167.986L64.0836 168.055ZM64.2581 165.439L63.2911 165.29L63.2227 165.735L64.1897 165.884L64.2581 165.439ZM63.0344 165.478L61.9936 172.247L62.4387 172.316L63.4794 165.547L63.0344 165.478ZM66.9197 168.095L66.9539 167.873L66.7314 167.838L66.6972 168.061L66.9197 168.095ZM66.1822 172.891L65.9597 172.857L65.9255 173.08L66.148 173.114L66.1822 172.891ZM67.1492 173.04L67.115 173.262L67.3375 173.297L67.3717 173.074L67.1492 173.04ZM67.8838 169.293L68.0227 169.47L68.0241 169.469L67.8838 169.293ZM68.5718 169.388L68.7631 169.27L68.7601 169.265L68.5718 169.388ZM68.1162 173.189L67.8936 173.154L67.8594 173.377L68.0819 173.411L68.1162 173.189ZM69.0831 173.337L69.0489 173.56L69.2714 173.594L69.3056 173.371L69.0831 173.337ZM69.8177 169.59L69.9566 169.767L69.9593 169.765L69.8177 169.59ZM70.5057 169.686L70.6978 169.568L70.6934 169.561L70.5057 169.686ZM70.0501 173.486L69.8276 173.452L69.7934 173.674L70.0159 173.708L70.0501 173.486ZM71.0171 173.635L70.9828 173.857L71.2054 173.891L71.2396 173.669L71.0171 173.635ZM71.4942 169.115L71.2933 169.217L71.4942 169.115ZM70.1308 168.648L70.2089 168.859L70.2141 168.857L70.1308 168.648ZM69.6384 169.018L69.4208 169.076L69.5318 169.493L69.8104 169.163L69.6384 169.018ZM69.3542 168.549L69.5061 168.382L69.5038 168.38L69.3542 168.549ZM68.1656 168.425L68.0576 168.228L68.0533 168.23L68.1656 168.425ZM67.8197 168.679L67.5972 168.645L67.4946 169.312L67.9772 168.84L67.8197 168.679ZM67.8866 168.244L68.1092 168.278L68.1434 168.055L67.9209 168.021L67.8866 168.244ZM66.6972 168.061L65.9597 172.857L66.4047 172.925L67.1422 168.129L66.6972 168.061ZM66.148 173.114L67.115 173.262L67.1834 172.817L66.2164 172.669L66.148 173.114ZM67.3717 173.074L67.8772 169.786L67.4322 169.718L66.9267 173.006L67.3717 173.074ZM67.8772 169.786C67.8998 169.639 67.9266 169.545 68.0227 169.47L67.7448 169.115C67.5032 169.305 67.4572 169.556 67.4322 169.718L67.8772 169.786ZM68.0241 169.469C68.0655 169.436 68.1002 169.422 68.1289 169.416C68.1588 169.409 68.1916 169.409 68.2311 169.415L68.2995 168.97C68.1383 168.946 67.9399 168.96 67.7435 169.116L68.0241 169.469ZM68.2311 169.415C68.2781 169.423 68.3049 169.435 68.3227 169.446C68.3405 169.458 68.3603 169.476 68.3835 169.512L68.7601 169.265C68.7112 169.19 68.6502 169.122 68.5691 169.069C68.4879 169.016 68.3976 168.985 68.2995 168.97L68.2311 169.415ZM68.3806 169.507C68.4333 169.592 68.4319 169.653 68.4155 169.76L68.8605 169.829C68.8828 169.684 68.9007 169.491 68.763 169.27L68.3806 169.507ZM68.4155 169.76L67.8936 173.154L68.3387 173.223L68.8605 169.829L68.4155 169.76ZM68.0819 173.411L69.0489 173.56L69.1173 173.115L68.1504 172.966L68.0819 173.411ZM69.3056 173.371L69.8112 170.084L69.3661 170.015L68.8606 173.303L69.3056 173.371ZM69.8112 170.084C69.8338 169.937 69.8606 169.842 69.9566 169.767L69.6788 169.413C69.4372 169.602 69.3911 169.853 69.3661 170.015L69.8112 170.084ZM69.9593 169.765C70.0202 169.716 70.0789 169.699 70.1651 169.713L70.2335 169.268C70.0296 169.236 69.8413 169.281 69.6761 169.415L69.9593 169.765ZM70.1651 169.713C70.2337 169.723 70.2758 169.746 70.3181 169.81L70.6934 169.561C70.575 169.383 70.4163 169.296 70.2335 169.268L70.1651 169.713ZM70.3138 169.803C70.3611 169.881 70.365 169.957 70.3495 170.058L70.7945 170.126C70.8176 169.976 70.8245 169.775 70.6977 169.568L70.3138 169.803ZM70.3495 170.058L69.8276 173.452L70.2726 173.52L70.7945 170.126L70.3495 170.058ZM70.0159 173.708L70.9828 173.857L71.0513 173.412L70.0843 173.263L70.0159 173.708ZM71.2396 173.669L71.8016 170.014L71.3566 169.945L70.7945 173.6L71.2396 173.669ZM71.8016 170.014C71.8413 169.756 71.881 169.382 71.6952 169.014L71.2933 169.217C71.411 169.45 71.3942 169.7 71.3566 169.945L71.8016 170.014ZM71.6952 169.014C71.4558 168.54 71.0417 168.422 70.7176 168.372L70.6492 168.817C70.9246 168.859 71.1532 168.939 71.2933 169.217L71.6952 169.014ZM70.7176 168.372C70.4816 168.336 70.2698 168.35 70.0474 168.439L70.2141 168.857C70.3503 168.803 70.4791 168.791 70.6492 168.817L70.7176 168.372ZM70.0526 168.437C69.8151 168.525 69.6147 168.697 69.4664 168.873L69.8104 169.163C69.9284 169.023 70.0686 168.911 70.2089 168.859L70.0526 168.437ZM69.856 168.96C69.8024 168.758 69.6979 168.558 69.5061 168.382L69.2023 168.715C69.323 168.825 69.3866 168.947 69.4208 169.076L69.856 168.96ZM69.5038 168.38C69.3226 168.219 69.1156 168.126 68.8901 168.091L68.8216 168.536C68.9635 168.558 69.0898 168.615 69.2046 168.717L69.5038 168.38ZM68.8901 168.091C68.5591 168.04 68.2832 168.104 68.0576 168.228L68.2736 168.623C68.4154 168.545 68.5917 168.501 68.8216 168.536L68.8901 168.091ZM68.0533 168.23C67.9362 168.297 67.786 168.397 67.6623 168.518L67.9772 168.84C68.0633 168.756 68.1778 168.678 68.2779 168.62L68.0533 168.23ZM68.0423 168.713L68.1092 168.278L67.6641 168.21L67.5972 168.645L68.0423 168.713ZM67.9209 168.021L66.9539 167.873L66.8855 168.318L67.8524 168.466L67.9209 168.021ZM73.9702 174.089L73.7477 174.054L73.7134 174.277L73.936 174.311L73.9702 174.089ZM74.9371 174.237L74.9029 174.46L75.1254 174.494L75.1597 174.272L74.9371 174.237ZM75.2306 169.69L75.4121 169.557L75.4093 169.553L75.2306 169.69ZM73.1114 169.374L73.2446 169.555L73.1114 169.374ZM72.5559 170.347L72.3326 170.318L72.304 170.536L72.5217 170.57L72.5559 170.347ZM73.4745 170.489L73.4403 170.711L73.6463 170.743L73.6937 170.54L73.4745 170.489ZM73.6478 170.199L73.7927 170.371L73.7955 170.368L73.6478 170.199ZM74.4243 170.298L74.2367 170.423L74.2376 170.424L74.4243 170.298ZM74.4103 171.226L74.3548 171.445L74.5951 171.506L74.6328 171.261L74.4103 171.226ZM72.6586 171.353L72.8057 171.523L72.8064 171.523L72.6586 171.353ZM72.3531 173.662L72.1761 173.801L72.1773 173.802L72.3531 173.662ZM73.6384 173.929L73.5278 173.733L73.5274 173.733L73.6384 173.929ZM74.0237 173.612L74.0579 173.389L73.9358 173.371L73.8543 173.464L74.0237 173.612ZM74.043 173.615L74.2655 173.649L74.2998 173.427L74.0772 173.392L74.043 173.615ZM73.198 172.931L72.9906 173.018L72.9912 173.02L73.198 172.931ZM73.3846 172.039L73.5304 172.21L73.5328 172.208L73.3846 172.039ZM74.2913 172L74.5138 172.034L74.5428 171.846L74.3616 171.786L74.2913 172ZM73.936 174.311L74.9029 174.46L74.9714 174.015L74.0044 173.866L73.936 174.311ZM75.1597 174.272L75.6756 170.916L75.2305 170.848L74.7146 174.203L75.1597 174.272ZM75.6756 170.916C75.7285 170.572 75.7616 170.033 75.4121 169.557L75.049 169.823C75.2887 170.15 75.2787 170.534 75.2305 170.848L75.6756 170.916ZM75.4093 169.553C75.1657 169.235 74.7784 168.996 74.2896 168.921L74.2212 169.366C74.6026 169.425 74.8833 169.606 75.0518 169.827L75.4093 169.553ZM74.2896 168.921C73.7979 168.846 73.3144 168.946 72.9783 169.192L73.2446 169.555C73.4663 169.393 73.8233 169.305 74.2212 169.366L74.2896 168.921ZM72.9783 169.192C72.6743 169.415 72.3982 169.818 72.3326 170.318L72.7791 170.377C72.828 170.004 73.0353 169.709 73.2446 169.555L72.9783 169.192ZM72.5217 170.57L73.4403 170.711L73.5087 170.266L72.5901 170.125L72.5217 170.57ZM73.6937 170.54C73.7118 170.463 73.7506 170.406 73.7927 170.371L73.5028 170.026C73.3857 170.125 73.2952 170.266 73.2553 170.438L73.6937 170.54ZM73.7955 170.368C73.8621 170.31 73.9442 170.294 74.0271 170.307L74.0955 169.861C73.9077 169.833 73.6848 169.868 73.5 170.029L73.7955 170.368ZM74.0271 170.307C74.1272 170.322 74.2002 170.368 74.2367 170.423L74.612 170.174C74.4878 169.986 74.2855 169.891 74.0955 169.861L74.0271 170.307ZM74.2376 170.424C74.283 170.491 74.2848 170.561 74.2651 170.689L74.7101 170.758C74.732 170.616 74.759 170.392 74.611 170.172L74.2376 170.424ZM74.2651 170.689L74.1877 171.192L74.6328 171.261L74.7101 170.758L74.2651 170.689ZM74.4658 171.008C74.1611 170.931 73.9698 170.901 73.8978 170.89L73.8293 171.335C73.8927 171.345 74.0688 171.372 74.3548 171.445L74.4658 171.008ZM73.8978 170.89C73.7488 170.867 73.5196 170.842 73.2723 170.87C73.025 170.898 72.7449 170.98 72.5108 171.183L72.8064 171.523C72.9493 171.399 73.1316 171.339 73.3223 171.317C73.5131 171.296 73.6979 171.315 73.8293 171.335L73.8978 170.89ZM72.5115 171.183C72.3044 171.361 72.1796 171.604 72.0999 171.832C72.0198 172.061 71.9791 172.295 71.952 172.472L72.397 172.54C72.4234 172.369 72.4592 172.169 72.525 171.98C72.5913 171.791 72.6818 171.63 72.8057 171.523L72.5115 171.183ZM71.952 172.472C71.8922 172.86 71.8551 173.393 72.1761 173.801L72.5301 173.523C72.3378 173.278 72.3378 172.925 72.397 172.54L71.952 172.472ZM72.1773 173.802C72.4386 174.129 72.8047 174.216 73.0151 174.249L73.0835 173.804C72.9072 173.777 72.6826 173.714 72.5289 173.521L72.1773 173.802ZM73.0151 174.249C73.2548 174.286 73.4889 174.272 73.7494 174.125L73.5274 173.733C73.3759 173.819 73.2499 173.829 73.0835 173.804L73.0151 174.249ZM73.749 174.125C73.9278 174.024 74.0964 173.871 74.193 173.76L73.8543 173.464C73.7829 173.545 73.6525 173.662 73.5278 173.733L73.749 174.125ZM73.9895 173.834L74.0088 173.837L74.0772 173.392L74.0579 173.389L73.9895 173.834ZM73.8205 173.581L73.7477 174.054L74.1927 174.123L74.2655 173.649L73.8205 173.581ZM73.9647 172.643C73.9388 172.811 73.8756 172.898 73.8178 172.941C73.7594 172.985 73.6803 173.005 73.5848 172.99L73.5164 173.435C73.7109 173.465 73.9175 173.43 74.0885 173.301C74.2602 173.172 74.3702 172.968 74.4098 172.711L73.9647 172.643ZM73.5848 172.99C73.5342 172.982 73.5023 172.967 73.4794 172.949C73.456 172.93 73.4296 172.899 73.4048 172.842L72.9912 173.02C73.0393 173.132 73.107 173.229 73.2006 173.302C73.2946 173.377 73.4026 173.418 73.5164 173.435L73.5848 172.99ZM73.4054 172.843C73.3702 172.76 73.3671 172.669 73.3848 172.554L72.9397 172.485C72.9158 172.641 72.9097 172.826 72.9906 173.018L73.4054 172.843ZM73.3848 172.554C73.4076 172.405 73.4495 172.279 73.5304 172.21L73.2389 171.867C73.0237 172.05 72.9645 172.324 72.9397 172.485L73.3848 172.554ZM73.5328 172.208C73.6336 172.12 73.7749 172.119 73.9231 172.142L73.9916 171.696C73.8304 171.672 73.5016 171.638 73.2364 171.869L73.5328 172.208ZM73.9231 172.142C74.0166 172.156 74.119 172.18 74.221 172.214L74.3616 171.786C74.2375 171.745 74.1109 171.715 73.9916 171.696L73.9231 172.142ZM74.0688 171.966L73.9647 172.643L74.4098 172.711L74.5138 172.034L74.0688 171.966ZM79.2492 171.317L79.215 171.54L79.4375 171.574L79.4717 171.351L79.2492 171.317ZM79.0334 170.274L78.848 170.402L78.8519 170.408L79.0334 170.274ZM76.877 169.943L76.7439 169.761L76.7397 169.764L76.877 169.943ZM76.4949 171.785L76.3029 171.902L76.3037 171.903L76.4949 171.785ZM77.032 172.283L77.1503 172.091L77.1498 172.091L77.032 172.283ZM77.5653 172.612L77.6844 172.421L77.6836 172.421L77.5653 172.612ZM77.7699 173.663L77.6289 173.488L77.6209 173.495L77.7699 173.663ZM76.9949 173.554L76.8066 173.677L76.9949 173.554ZM76.9257 173.167L77.1482 173.201L77.1824 172.979L76.9599 172.945L76.9257 173.167ZM75.9587 173.019L75.9929 172.796L75.7704 172.762L75.7362 172.984L75.9587 173.019ZM76.1633 174.07L76.351 173.945L76.3499 173.943L76.1633 174.07ZM78.464 174.364L78.3134 174.197L78.3124 174.197L78.464 174.364ZM78.8112 172.556L78.6145 172.666L78.6145 172.666L78.8112 172.556ZM78.2637 171.997L78.1465 172.189L78.1493 172.191L78.2637 171.997ZM77.7207 171.666L77.8379 171.474L77.8325 171.471L77.7207 171.666ZM77.3822 171.357L77.5832 171.255L77.5823 171.254L77.3822 171.357ZM78.21 170.801L78.3916 170.668L78.21 170.801ZM78.3016 171.172L78.0773 171.152L78.0592 171.362L78.2673 171.394L78.3016 171.172ZM79.4717 171.351C79.5367 170.929 79.4538 170.467 79.2149 170.141L78.8519 170.408C79.0057 170.617 79.0776 170.952 79.0267 171.283L79.4717 171.351ZM79.2187 170.146C79.0423 169.891 78.6693 169.595 78.0054 169.493L77.937 169.938C78.4914 170.023 78.7493 170.259 78.8481 170.402L79.2187 170.146ZM78.0054 169.493C77.4204 169.403 77.0119 169.565 76.7439 169.761L77.0102 170.124C77.1884 169.994 77.4777 169.867 77.937 169.938L78.0054 169.493ZM76.7397 169.764C76.4505 169.987 76.2163 170.377 76.1362 170.898L76.5812 170.966C76.6468 170.54 76.832 170.262 77.0144 170.121L76.7397 169.764ZM76.1362 170.898C76.0955 171.163 76.0886 171.552 76.3029 171.902L76.6869 171.667C76.553 171.449 76.5476 171.185 76.5812 170.966L76.1362 170.898ZM76.3037 171.903C76.3661 172.004 76.5353 172.242 76.9141 172.475L77.1498 172.091C76.8413 171.901 76.7188 171.718 76.6861 171.666L76.3037 171.903ZM76.9136 172.474L77.447 172.804L77.6836 172.421L77.1503 172.091L76.9136 172.474ZM77.4462 172.803C77.6192 172.911 77.6871 172.992 77.7155 173.049C77.7412 173.1 77.7484 173.159 77.7326 173.262L78.1776 173.33C78.2005 173.181 78.2024 173.016 78.1184 172.848C78.0371 172.685 77.8907 172.55 77.6844 172.421L77.4462 172.803ZM77.7326 173.262C77.716 173.369 77.6866 173.442 77.629 173.488L77.9108 173.839C78.1017 173.686 78.1555 173.474 78.1776 173.33L77.7326 173.262ZM77.6209 173.495C77.5684 173.541 77.4888 173.561 77.4018 173.547L77.3333 173.992C77.5171 174.02 77.7423 173.988 77.919 173.832L77.6209 173.495ZM77.4018 173.547C77.3632 173.541 77.3134 173.525 77.2673 173.499C77.2195 173.472 77.1929 173.445 77.1832 173.431L76.8066 173.677C76.8691 173.773 76.9611 173.844 77.0477 173.892C77.136 173.941 77.2366 173.977 77.3333 173.992L77.4018 173.547ZM77.1832 173.431C77.1506 173.381 77.1344 173.291 77.1482 173.201L76.7032 173.133C76.6783 173.295 76.6948 173.507 76.8066 173.677L77.1832 173.431ZM76.9599 172.945L75.9929 172.796L75.9245 173.241L76.8915 173.39L76.9599 172.945ZM75.7362 172.984C75.6763 173.374 75.7361 173.839 75.9768 174.196L76.3499 173.943C76.1874 173.703 76.1341 173.359 76.1812 173.053L75.7362 172.984ZM75.9757 174.194C76.1726 174.491 76.5447 174.792 77.1854 174.89L77.2538 174.445C76.7341 174.365 76.4754 174.133 76.351 173.945L75.9757 174.194ZM77.1854 174.89C77.8593 174.994 78.3217 174.798 78.6156 174.53L78.3124 174.197C78.1228 174.37 77.7983 174.529 77.2538 174.445L77.1854 174.89ZM78.6145 174.531C78.98 174.203 79.1008 173.764 79.1401 173.508L78.6951 173.439C78.6631 173.648 78.5683 173.967 78.3134 174.197L78.6145 174.531ZM79.1401 173.508C79.2096 173.056 79.1468 172.696 79.0078 172.447L78.6145 172.666C78.6928 172.806 78.7535 173.059 78.6951 173.439L79.1401 173.508ZM79.0078 172.447C78.8809 172.219 78.6413 171.959 78.3781 171.803L78.1493 172.191C78.3398 172.303 78.5242 172.504 78.6145 172.666L79.0078 172.447ZM78.3809 171.805L77.8378 171.474L77.6035 171.858L78.1465 172.189L78.3809 171.805ZM77.8325 171.471C77.714 171.403 77.6258 171.34 77.5832 171.255L77.1813 171.458C77.2904 171.674 77.4908 171.794 77.6089 171.862L77.8325 171.471ZM77.5823 171.254C77.5496 171.19 77.547 171.123 77.5556 171.067L77.1106 170.998C77.0924 171.116 77.0929 171.287 77.1821 171.46L77.5823 171.254ZM77.5556 171.067C77.5722 170.959 77.6173 170.906 77.6593 170.878C77.7058 170.847 77.7718 170.833 77.847 170.844L77.9155 170.399C77.749 170.374 77.5662 170.4 77.4116 170.502C77.2526 170.607 77.1445 170.778 77.1106 170.998L77.5556 171.067ZM77.847 170.844C77.9436 170.859 78.0006 170.896 78.0285 170.934L78.3916 170.668C78.2721 170.505 78.0897 170.426 77.9155 170.399L77.847 170.844ZM78.0285 170.934C78.0578 170.974 78.0858 171.053 78.0773 171.152L78.5259 171.191C78.5426 170.997 78.4932 170.806 78.3916 170.668L78.0285 170.934ZM78.2673 171.394L79.215 171.54L79.2834 171.095L78.3358 170.949L78.2673 171.394Z" fill="white" fill-opacity="0.19"/>
<defs>
<linearGradient id="paint0_linear" x1="5.60447" y1="-5.2545" x2="62.351" y2="45.2762" gradientUnits="userSpaceOnUse">
<stop offset="0.00680678" stop-color="#363636"/>
<stop offset="1"/>
</linearGradient>
</defs>
</svg>
