<svg width="89" height="79" viewBox="0 0 89 79" fill="none" xmlns="http://www.w3.org/2000/svg">
<path d="M74.1667 23.5217V59.3275H14.8334V23.5217C14.8334 22.6584 15.2241 21.8304 15.9195 21.22C16.615 20.6095 17.5582 20.2666 18.5417 20.2666H70.4584C71.4419 20.2666 72.3851 20.6095 73.0805 21.22C73.776 21.8304 74.1667 22.6584 74.1667 23.5217Z" stroke="white" stroke-width="2" stroke-linecap="square"/>
<path d="M74.1667 23.2504V56.0724H14.8334V23.2504C14.8334 22.4591 15.2241 21.7001 15.9195 21.1405C16.615 20.581 17.5582 20.2666 18.5417 20.2666H70.4584C71.4419 20.2666 72.3851 20.581 73.0805 21.1405C73.776 21.7001 74.1667 22.4591 74.1667 23.2504Z" fill="#C4C4C4" fill-opacity="0.2" stroke="white" stroke-width="2" stroke-linecap="square"/>
<path d="M14.8334 56.0725H74.1667M7.4167 59.3276H81.5834H7.4167Z" stroke="white" stroke-width="2" stroke-linecap="square"/>
</svg>
