<svg width="124" height="123" viewBox="0 0 124 123" fill="none" xmlns="http://www.w3.org/2000/svg">
<circle cx="62.0001" cy="61.5824" r="60.3999" stroke="white" stroke-opacity="0.2" stroke-width="2"/>
<path d="M92.1667 45.5217V81.3275H32.8334V45.5217C32.8334 44.6584 33.2241 43.8304 33.9195 43.22C34.615 42.6095 35.5582 42.2666 36.5417 42.2666H88.4584C89.4419 42.2666 90.3851 42.6095 91.0805 43.22C91.776 43.8304 92.1667 44.6584 92.1667 45.5217Z" stroke="white" stroke-width="2" stroke-linecap="square"/>
<path d="M92.1667 45.2504V78.0724H32.8334V45.2504C32.8334 44.4591 33.2241 43.7001 33.9195 43.1405C34.615 42.581 35.5582 42.2666 36.5417 42.2666H88.4584C89.4419 42.2666 90.3851 42.581 91.0805 43.1405C91.776 43.7001 92.1667 44.4591 92.1667 45.2504Z" fill="#C4C4C4" fill-opacity="0.2" stroke="white" stroke-width="2" stroke-linecap="square"/>
<path d="M32.8334 78.0725H92.1667M25.4167 81.3276H99.5834H25.4167Z" stroke="white" stroke-width="2" stroke-linecap="square"/>
</svg>
